PathFileType	4	(X/Y/Z)	/Users/visionmauri/1_1_1_f_Sports2D/1_1_1_f_Sports2D_px_person00.trc
DataRate	CameraRate	NumFrames	NumMarkers	Units	OrigDataRate	OrigDataStartFrame	OrigNumFrames
30.0	30.0	5	22	m	30.0	179	358
Frame#	Time	Hip			RHip			RKnee			RAnkle			RBigToe			RSmallToe			RHeel			LHip			LKnee			LAnkle			LBigToe			LSmallToe			LHeel			Neck			Head			Nose			RShoulder			RElbow			RWrist			LShoulder			LElbow			LWrist			
		X1	Y1	Z1	X2	Y2	Z2	X3	Y3	Z3	X4	Y4	Z4	X5	Y5	Z5	X6	Y6	Z6	X7	Y7	Z7	X8	Y8	Z8	X9	Y9	Z9	X10	Y10	Z10	X11	Y11	Z11	X12	Y12	Z12	X13	Y13	Z13	X14	Y14	Z14	X15	Y15	Z15	X16	Y16	Z16	X17	Y17	Z17	X18	Y18	Z18	X19	Y19	Z19	X20	Y20	Z20	X21	Y21	Z21	X22	Y22	Z22
179	5.983380018674136	513.987253769568	927.474840481087	0.0	483.5483983086162	933.7088139487843	0.0	436.4915493564526	1113.0945911234992	0.0	490.7713793229341	1283.669042200037	0.0	424.35593823749707	1342.6423505093849	0.0	428.6052037822479	1330.2185976605988	0.0	513.599347085437	1312.15133402945	0.0	546.22014022105	928.9877506761999	0.0	546.3942857955135	1111.047632719311	0.0	563.1227847184922	1317.6668781477424	0.0	499.2016241798623	1355.8980291780542	0.0	527.9522498221546	1363.3216132692974	0.0	582.569225978592	1349.3378165614606	0.0	519.2197890050344	655.9058707588858	0.0	488.13461423265863	529.5304085362646	0.0	458.28290578163455	602.224757114675	0.0	475.45152046815565	701.6615030934634	0.0	436.73200836923365	818.2350038493059	0.0	373.66130770360144	914.1912142634986	0.0	578.7243072620408	689.8068770266423	0.0	615.3365603231367	823.1773811106934	0.0	591.0174551355402	934.2651797929401	0.0
180	6.016806722689076	508.727761844689	928.0321414177658	0.0	477.56094027601586	933.6643807876413	0.0	435.2241907256009	1115.8413375930704	0.0	472.4382306098911	1288.7733997876505	0.0	410.4321075225385	1344.332867805005	0.0	411.5037547532328	1332.9287081318084	0.0	493.0124682714393	1316.8507266604909	0.0	541.7711808102423	929.709658321013	0.0	544.6468890677721	1111.9015770801464	0.0	561.5902888838834	1317.744061826922	0.0	497.97997295010816	1357.6122536186836	0.0	528.9277880637455	1365.3271308963383	0.0	582.5480000439492	1348.5606679074053	0.0	514.3930791275295	656.2606258147321	0.0	485.58406358198374	529.3886489658294	0.0	455.53579522331387	601.7169505715837	0.0	470.29520698785586	703.4231135680355	0.0	431.0541817457963	816.7653790210854	0.0	371.8871162635197	914.014081141814	0.0	575.677287067467	690.2687522155476	0.0	612.383083860357	825.3189068274514	0.0	589.692221983403	936.7050483914531	0.0
181	6.050233426704015	504.44348771389195	928.4701963651913	0.0	472.0549013237514	933.7488806370686	0.0	433.2798616325376	1117.9090907783734	0.0	459.202041952004	1291.6207846224324	0.0	403.337086250912	1347.5548005307571	0.0	400.9918757851219	1336.764189380037	0.0	478.52824133150034	1318.6307081026532	0.0	537.6192791389456	930.0798890036867	0.0	542.2643196414023	1112.0185231495127	0.0	560.0361928247045	1317.7808298004318	0.0	493.85175675197314	1358.4537426502516	0.0	524.5762205039568	1366.1268601352403	0.0	581.9997060302954	1347.1361402068896	0.0	509.6309970728573	656.4043658756208	0.0	482.6060486479198	529.7993914924429	0.0	451.93679616231253	601.019767958981	0.0	464.22803626219655	704.1978196826046	0.0	425.65301810666784	815.9596567355836	0.0	370.2735677818516	915.2328236810555	0.0	573.3673474543539	692.2706763394622	0.0	609.7037291574092	827.7958126607886	0.0	588.6270669370448	938.6928419562765	0.0
182	6.083660130718954	500.68874760542417	928.6553737021185	0.0	466.8303004988074	933.8822253225752	0.0	430.67123056738734	1118.6855229701073	0.0	453.0423719933487	1293.171188528636	0.0	402.30240737416864	1351.1622996562837	0.0	397.6595782835656	1340.4362034256455	0.0	472.63610923110747	1319.7178774455133	0.0	534.0669899533767	929.4750442378061	0.0	539.5776852524845	1111.476227161717	0.0	558.9187427085837	1317.5198220697152	0.0	490.7865699321345	1358.1702726693181	0.0	520.960317287273	1365.8047678916962	0.0	581.2476921174587	1345.7324325702746	0.0	504.5911006516343	656.1066597320665	0.0	479.22662836424274	531.0378740327601	0.0	448.1934244575202	600.3372567270692	0.0	456.7484601598316	704.8010083256262	0.0	420.0262644538981	816.3255699817311	0.0	369.2640555271181	917.543745395145	0.0	570.8672763239824	694.9543293577176	0.0	607.4411416852626	827.4577697430052	0.0	587.9935837448277	937.4889874096198	0.0
183	6.117086834733893	496.6336094758315	928.9870075664761	0.0	461.53128791984585	933.9092385030727	0.0	428.6290662908532	1118.9089478629621	0.0	453.31044675347846	1294.4659098006832	0.0	404.14986665071547	1353.350888751975	0.0	398.65634298531756	1343.1113755301626	0.0	473.4714040230874	1321.386251082347	0.0	530.7551844771895	928.1047274826473	0.0	536.2833283638993	1110.7654715510525	0.0	558.135171258552	1316.5819072835448	0.0	490.747469963449	1357.514701066146	0.0	521.0714035108548	1365.06888392121	0.0	579.9314539761036	1344.696632366267	0.0	498.89560907055517	655.3862011906577	0.0	475.28693176566776	532.5300616060844	0.0	444.4769418180127	600.0681130147753	0.0	448.17709670406623	705.2246780562917	0.0	414.2141249346103	816.6966408010699	0.0	369.3629010433033	919.536002150635	0.0	567.1965915160453	696.7001753075881	0.0	605.4660600352335	823.9237501451229	0.0	587.9570999370125	933.0539015355652	0.0
